<svg width="28" height="28" viewBox="0 0 28 28" fill="none" xmlns="http://www.w3.org/2000/svg">
<path d="M13.5507 9.37058C11.667 9.37013 9.78671 9.20895 7.93037 8.88885C7.87915 8.8797 7.83025 8.86048 7.7865 8.83232C7.74275 8.80414 7.70501 8.76758 7.67548 8.72474C7.64594 8.6819 7.62519 8.63363 7.61442 8.58273C7.60365 8.53182 7.60308 8.47928 7.61274 8.42815L8.3294 4.57456C8.34855 4.47294 8.40694 4.38293 8.49191 4.32399C8.57688 4.26504 8.68164 4.24189 8.78353 4.25954C12.068 4.81647 15.4246 4.79338 18.7012 4.19129C19.6453 4.01636 20.5794 3.79116 21.4995 3.51665C21.5992 3.48681 21.7067 3.49766 21.7985 3.54686C21.8903 3.59605 21.9588 3.67957 21.9891 3.77916L23.1703 7.51726C23.1859 7.56697 23.1915 7.61929 23.1867 7.67118C23.1819 7.72305 23.1668 7.77346 23.1424 7.81949C23.118 7.86552 23.0848 7.90624 23.0445 7.9393C23.0042 7.97236 22.9578 7.99709 22.9079 8.01208C21.806 8.34362 20.6869 8.61484 19.5557 8.82454C17.5748 9.18904 15.5648 9.37183 13.5507 9.37058Z" fill="#293FFF"/>
<path d="M13.5508 16.9359C11.1976 16.9373 8.84885 16.7331 6.53127 16.3255C6.48005 16.3164 6.43115 16.2972 6.3874 16.2689C6.34364 16.2408 6.3059 16.2043 6.27637 16.1614C6.24683 16.1186 6.22608 16.0703 6.21531 16.0194C6.20455 15.9685 6.20397 15.9159 6.21363 15.8648L6.93684 12.0125C6.95599 11.9104 7.01475 11.8199 7.10031 11.7609C7.18588 11.7019 7.29131 11.6791 7.39361 11.6975C11.4681 12.4023 15.6335 12.4023 19.708 11.6975C19.8102 11.6791 19.9157 11.7019 20.0013 11.7609C20.0868 11.8199 20.1456 11.9104 20.1647 12.0125L20.8853 15.8648C20.895 15.9159 20.8943 15.9685 20.8836 16.0194C20.8728 16.0703 20.8521 16.1186 20.8226 16.1614C20.793 16.2043 20.7553 16.2408 20.7115 16.2689C20.6678 16.2972 20.6189 16.3164 20.5677 16.3255C18.2509 16.733 15.9031 16.9372 13.5508 16.9359Z" fill="#1579FF"/>
<path d="M13.1544 24.5001C10.4653 24.4782 7.78272 24.2315 5.13473 23.7625C5.08363 23.7532 5.03487 23.7339 4.99127 23.7056C4.94767 23.6774 4.91008 23.6408 4.88067 23.598C4.85127 23.5551 4.83063 23.507 4.81994 23.4561C4.80926 23.4053 4.80874 23.3529 4.81841 23.3019L5.53769 19.4495C5.55684 19.3476 5.61541 19.2574 5.70068 19.1984C5.78595 19.1395 5.89104 19.1165 5.99314 19.1345C8.35888 19.5507 10.755 19.7702 13.157 19.7908C13.2615 19.7908 13.3616 19.8322 13.4355 19.9062C13.5093 19.98 13.5508 20.0802 13.5508 20.1846V24.1038C13.5511 24.1559 13.5411 24.2076 13.5213 24.2559C13.5015 24.3042 13.4723 24.3479 13.4355 24.3849C13.3986 24.4217 13.3548 24.4509 13.3065 24.4707C13.2583 24.4905 13.2066 24.5005 13.1544 24.5001Z" fill="#00B3FF"/>
</svg>
