<svg width="44" height="44" viewBox="0 0 44 44" fill="none" xmlns="http://www.w3.org/2000/svg">
<g filter="url(#filter0_d_4382_254)">
<path d="M2 21C2 9.95431 10.9543 1 22 1C33.0457 1 42 9.95431 42 21C42 32.0457 33.0457 41 22 41C10.9543 41 2 32.0457 2 21Z" fill="white"/>
<path d="M22 1.5C32.7696 1.5 41.5 10.2304 41.5 21C41.5 31.7696 32.7696 40.5 22 40.5C11.2304 40.5 2.5 31.7696 2.5 21C2.5 10.2304 11.2304 1.5 22 1.5Z" stroke="#EBEBEB"/>
<path fill-rule="evenodd" clip-rule="evenodd" d="M24.8421 10.5479L13.1873 11.4055C12.2475 11.4869 11.92 12.0995 11.92 12.834V25.5721C11.92 26.1444 12.1241 26.6336 12.6151 27.2874L15.3548 30.8394C15.8048 31.4114 16.2138 31.5337 17.0731 31.4928L30.6077 30.6761C31.7525 30.5948 32.0799 30.0637 32.0799 29.1655V14.8347C32.0799 14.3705 31.8961 14.2363 31.3541 13.841C31.3243 13.8192 31.2934 13.7967 31.2614 13.7733L27.5411 11.1604C26.6415 10.5074 26.2733 10.4252 24.8421 10.5479ZM17.38 14.5997C16.275 14.6742 16.0239 14.6912 15.3963 14.1818L13.8005 12.9161C13.6378 12.7525 13.7194 12.5483 14.128 12.5078L25.3328 11.6912C26.2731 11.6093 26.7637 11.9365 27.1319 12.2222L29.0537 13.6104C29.1355 13.6511 29.3397 13.8958 29.0942 13.8958L17.5226 14.5901L17.38 14.5997ZM16.0911 29.0428V16.8765C16.0911 16.3458 16.2547 16.1007 16.7451 16.0595L30.0347 15.284C30.4854 15.2432 30.6895 15.5292 30.6895 16.0595V28.1442C30.6895 28.6753 30.6075 29.1251 29.8712 29.1655L17.1541 29.9008C16.4181 29.9413 16.0911 29.6967 16.0911 29.0428ZM28.6454 17.5291C28.727 17.8969 28.6454 18.2644 28.2767 18.3058L27.6639 18.4278V27.4097C27.1319 27.6954 26.6413 27.8588 26.2325 27.8588C25.578 27.8588 25.4141 27.6545 24.9239 27.0424L20.9159 20.755V26.8383L22.1841 27.1243C22.1841 27.1243 22.1841 27.8588 21.1609 27.8588L18.34 28.0223C18.2581 27.8588 18.34 27.4509 18.6262 27.3691L19.3623 27.1652V19.1221L18.3402 19.0402C18.2583 18.6724 18.4624 18.1421 19.0353 18.1009L22.0614 17.8971L26.2325 24.2664V18.6319L25.1691 18.5099C25.0874 18.0603 25.4141 17.7338 25.8231 17.6933L28.6454 17.5291Z" fill="#1E2226"/>
</g>
<defs>
<filter id="filter0_d_4382_254" x="0" y="0" width="44" height="44" filterUnits="userSpaceOnUse" color-interpolation-filters="sRGB">
<feFlood flood-opacity="0" result="BackgroundImageFix"/>
<feColorMatrix in="SourceAlpha" type="matrix" values="0 0 0 0 0 0 0 0 0 0 0 0 0 0 0 0 0 0 127 0" result="hardAlpha"/>
<feOffset dy="1"/>
<feGaussianBlur stdDeviation="1"/>
<feComposite in2="hardAlpha" operator="out"/>
<feColorMatrix type="matrix" values="0 0 0 0 0.0392157 0 0 0 0 0.0509804 0 0 0 0 0.0784314 0 0 0 0.03 0"/>
<feBlend mode="normal" in2="BackgroundImageFix" result="effect1_dropShadow_4382_254"/>
<feBlend mode="normal" in="SourceGraphic" in2="effect1_dropShadow_4382_254" result="shape"/>
</filter>
</defs>
</svg>
