<svg width="28" height="28" viewBox="0 0 28 28" fill="none" xmlns="http://www.w3.org/2000/svg">
<path fill-rule="evenodd" clip-rule="evenodd" d="M14 26.25C20.7655 26.25 26.25 20.7655 26.25 14C26.25 7.23451 20.7655 1.75 14 1.75C7.23451 1.75 1.75 7.23451 1.75 14C1.75 20.7655 7.23451 26.25 14 26.25ZM18.5642 19.1459C18.913 19.3451 19.3595 19.2522 19.5688 18.9201C19.7781 18.588 19.6665 18.1629 19.3177 17.9637C16.2481 16.1705 12.4251 15.7587 7.9743 16.7284C7.58363 16.8081 7.34644 17.18 7.43015 17.5519C7.51387 17.9238 7.90454 18.1497 8.2952 18.07C12.3693 17.1933 15.8156 17.5519 18.5642 19.1459ZM19.7362 16.1837C20.1688 16.4228 20.7269 16.3033 20.992 15.8915C21.257 15.4797 21.1175 14.9484 20.7129 14.7093C17.0992 12.5973 11.8252 12.0128 7.58363 13.2349C7.09529 13.3677 6.83019 13.8459 6.96972 14.3108C7.10924 14.7624 7.61153 15.0148 8.09987 14.882C11.8112 13.806 16.5969 14.3374 19.7362 16.1837ZM7.54177 11.4416C11.1415 10.4055 17.3504 10.6048 21.1175 12.7301C21.6338 13.0356 22.3035 12.8629 22.5965 12.3582C22.9034 11.8667 22.736 11.2291 22.2198 10.9369C17.8945 8.49274 11.0299 8.25365 6.89996 9.44914C6.32791 9.62182 5.99305 10.2063 6.17443 10.7509C6.35581 11.3088 6.96972 11.6143 7.54177 11.4416Z" fill="#1ED760"/>
</svg>
