<svg width="44" height="44" viewBox="0 0 44 44" fill="none" xmlns="http://www.w3.org/2000/svg">
<g filter="url(#filter0_d_4382_932)">
<path d="M2 21C2 9.95431 10.9543 1 22 1C33.0457 1 42 9.95431 42 21C42 32.0457 33.0457 41 22 41C10.9543 41 2 32.0457 2 21Z" fill="#171717"/>
<path d="M22 1.5C32.7696 1.5 41.5 10.2304 41.5 21C41.5 31.7696 32.7696 40.5 22 40.5C11.2304 40.5 2.5 31.7696 2.5 21C2.5 10.2304 11.2304 1.5 22 1.5Z" stroke="#262626"/>
<path fill-rule="evenodd" clip-rule="evenodd" d="M22 8.75C28.7655 8.75 34.25 14.2345 34.25 21C34.25 27.7655 28.7655 33.25 22 33.25C15.2345 33.25 9.75 27.7655 9.75 21C9.75 14.2345 15.2345 8.75 22 8.75ZM24.411 19.2515L22.0006 21.6624L24.4113 24.0736L22.0004 26.485L19.589 24.0736L22.0003 21.6625L19.589 19.2512L22.0004 16.8408L24.4112 19.2511L26.8224 16.8406L29.2332 19.2514L26.8224 21.6627L24.411 19.2515ZM19.5891 19.2514L17.1778 21.6627L14.7668 19.2514L17.1778 16.8406L19.5891 19.2514Z" fill="white"/>
</g>
<defs>
<filter id="filter0_d_4382_932" x="0" y="0" width="44" height="44" filterUnits="userSpaceOnUse" color-interpolation-filters="sRGB">
<feFlood flood-opacity="0" result="BackgroundImageFix"/>
<feColorMatrix in="SourceAlpha" type="matrix" values="0 0 0 0 0 0 0 0 0 0 0 0 0 0 0 0 0 0 127 0" result="hardAlpha"/>
<feOffset dy="1"/>
<feGaussianBlur stdDeviation="1"/>
<feComposite in2="hardAlpha" operator="out"/>
<feColorMatrix type="matrix" values="0 0 0 0 0.0392157 0 0 0 0 0.0509804 0 0 0 0 0.0784314 0 0 0 0.03 0"/>
<feBlend mode="normal" in2="BackgroundImageFix" result="effect1_dropShadow_4382_932"/>
<feBlend mode="normal" in="SourceGraphic" in2="effect1_dropShadow_4382_932" result="shape"/>
</filter>
</defs>
</svg>
